<svg xmlns="http://www.w3.org/2000/svg" width="664" height="730" fill="none" viewBox="0 0 664 730">
  <path fill="#FFF3E0" d="M603.994 654.515c-21.107-3.056-42.661-3.309-63.986-5.146a205.801 205.801 0 0 1-27.876-3.853c-11.011-2.475-21.713-6.177-32.217-9.252 1.105-.684 3.116-2.006 5.217-3.215a87740.411 87740.411 0 0 1 130.171-74.988c4.092-2.353 6.442-4.922 6.183-9.89-.329-6.299.448-12.654.737-18.981.438-9.57-.578-11.248-10.384-12.842-18.438-2.924-36.926-5.624-55.474-7.883-5.197-.628-6.7-2.259-6.59-6.983.617-24.747.527-49.521 1.573-74.248.458-10.761 1.065-22.141 5.027-32.02 11.579-28.843 24.979-57.029 37.414-85.572 2.091-4.79 5.247-7.442 10.543-8.014 8.592-.938 13.56-5.69 17.463-12.795 3.902-7.105 3.982-13.611 1.354-20.969-2.171-5.999-5.835-10.123-12.604-10.779-10.663-1.032-21.365-1.744-32.058-2.494-5.973-.422-10.862 1.762-15.411 5.531-2.498 1.887-5.589 2.942-8.791 2.999-7.965.056-15.93-.75-23.894-1.059-6.242-.244-12.943.553-14.088-7.855-.139-1.012-1.443-1.875-2.24-2.812-3.982-4.575-3.136-15.223 1.573-18.972 3.983-3.131 3.565-6.937 1.872-10.808-1.822-4.171-5.386-4.124-9.508-3.468-3.395.534-6.969 0-10.413.29-7.616.563-14.167-2.437-20.967-4.94-3.863-1.415-9.727-.674-11.778-3.093-2.29-2.709-1.274-7.883-1.712-11.989-.508-4.686-.379-10.17-5.834-12.316-4.67-1.875-5.257-5.062-5.685-8.821-.358-3.271-.667-6.562-.996-9.992 26.961-9.421 43.258-27.493 49.61-53.542 3.196-13.123 6.471-26.246 8.861-39.482 2.389-13.235 11.17-21.371 23.356-26.349 5.336-2.174 4.45-5.624 2.648-7.798-3.524-4.331-7.965-5.081-13.699-5.456-23.217-1.537-46.653-.993-69.919-.862-6.272 0-12.594.937-18.817.497-6.481-.488-12.823-2.738-19.304-3.131-4.749-.3-9.597 1.49-14.436 1.753-7.964.43-15.929.43-23.943.506-2.479 0-4.978-.338-7.437-.46-.996-.046-2.808.3-2.878.075-2.439-7.498-7.904-2.99-12.185-2.718-10.812.675-21.634 1.453-32.436 2.278-1.086.231-2.13.613-3.096 1.134l.179 1.537c8.721 0 17.442-.13 26.164 0 59.21 1.05 118.416 2.134 177.62 3.253 4.261.084 9.07-1.35 12.116 4.621-12.076 5.296-24.76 2.015-36.966 2.615-9.766.469-19.582.094-29.379.094v1.875h58.49l.358 2.409c-3.195.937-6.421 2.718-9.597 2.634-35.522-.872-71.034-2.11-106.526-3.084-18.478-.506-36.976-.422-55.444-1.088-15.929-.571-31.858-1.809-47.788-2.812a24.333 24.333 0 0 1-4.619-1.265h105.043c-38.588-2.653-77.396-.684-115.905-4.612l-.936-2.418c2.43-1.472 4.978-2.878 7.278-4.462-.129-.056-.239-.14-.358-.206.995-.497 2.07-1.04 3.066-1.584 12.943-6.993 27.548-10.64 42.133-13.451a467.698 467.698 0 0 1 22.42-3.75c11.947-1.659 23.894-3.009 35.94-3.58 17.921-.844 32.854-1.538 50.605.093 4.102.384 8.463.431 12.455 1.078 4.568.764 9.178 1.287 13.809 1.566-.538 0-1.991-1.266-2.688-1.528a33.83 33.83 0 0 0-3.455-.89 64.523 64.523 0 0 0-6.541-1.341c-4.38-.685-8.811-1.031-13.221-1.5a262.777 262.777 0 0 0-26.044-1.49h-2.141c-29.797.712-56.29 1.602-85.779 6.046a133.755 133.755 0 0 0-17.123 3.468c-3.127.937-6.302 1.687-9.458 2.493-3.704-3.121-9.807-4.921-14.118-6.561-4.091-1.538-8.173-3.16-12.395-4.312-45.846-12.514-90.318-9.627-133.875 9.373C102.065 37.958 63.954 68.263 38.517 113.2 2.866 176.2-7.727 242.312 5.454 312.051c6.342 33.604 17.691 65.615 40.38 93.024 24.89 30.07 56.5 50.486 96.313 58.762 4.529.938 5.863 2.363 5.784 6.468-.289 14.848-.498 29.714-.239 44.553.06 3.44-1.225 4.865-3.982 6.355-6.631 3.543-13.082 7.368-19.613 11.07l.508 1.378h8.621l-4.669 2.681 4.978.516-2.409 3.683-.15-.29-8.273 9.673c-4.092-.581-7.965-2.024-12.365-.056-2.22.994-5.555.103-8.293-.412-1.752-.328-4.33-1.238-4.72-2.409-.487-1.509.847-3.553 1.395-5.362l-1.185-.891c-2.16 2.813-5.645 5.353-6.203 8.437-1.254 6.777-1.344 13.788-1.344 20.706 0 8.989 6.472 12.748 15.541 9.608-2.558-.994-5.645-1.584-7.835-3.225-1.842-1.387-2.648-3.993-3.883-5.999l2.698-.515c-.706-.591-1.374-1.172-2.05-1.753l8.81-3.103-9.627-2.999c.07-.328.15-.656.22-.985l4.14-.843-4.629-2.494c.14-.262.27-.524.399-.787l9.458 1.762-4.112-6.842 332.044 59.822v1.143l-3.654.638c.924.73 1.723 1.59 2.37 2.549.418.863.089 2.053.089 3.178l-5.515.234 5.256 1.8-.488 1.725-16.108-1.275-.627.562 2.499.582-.657.937-14.934-1.078v1.631h6.431l.18 1.153-3.037.862c.488 1.425 1.504 2.925 1.275 4.218-.17.938-2.181 2.503-2.987 2.325-9.607-2.072-19.155-4.387-28.693-6.711-2.698-.666-5.286-1.744-7.964-2.288a69.79 69.79 0 0 0-7.447-.721c.06-.572.109-1.153.159-1.734l4.182-.422.149-1.191-23.944-4.377-.249 3.805c-5.266 0-9.955.582-14.505-.121-9.528-1.481-18.916-3.75-28.404-5.484-18.478-3.356-36.06-10.311-55.155-11.379-13.49-.788-26.074-7.096-40.191-5.953-6.113.497-12.534-1.874-18.727-3.271-1.354-.309-2.319-2.156-3.534-3.375l-10.185 1.163-.298-2.184 13.589-1.969c-4.609-.806-8.164-1.649-11.768-1.978-1.931-.178-5.495.179-5.674.938-.916 3.506-2.848 2.531-5.128 1.79a38.781 38.781 0 0 0-3.673-.572c-9.15-1.931-18.239-4.124-27.448-5.727-3.843-.675-7.965-.112-11.947-.112l-.09 1.79 308.628 56.241c-1.274 4.125-2.767 7.256-3.166 10.518-1.861 15.279 14.267 28.645 31.232 25.721 4.301-.741 6.431.225 8.502 3.749 1.975 3.393 4.769 6.301 8.156 8.491a27.231 27.231 0 0 0 11.347 4.117c17.921 2.727 35.303 6.121 51.671 14.322a311.358 311.358 0 0 0 44.482 18.007c20.748 6.636 42.043 7.724 63.01-.141 11.638-4.377 21.902-10.114 25.337-22.693v-8.324c-13.54-21.503-33.79-34.448-59.515-38.178Zm14.535-366.066c-2.35 8.989-8.194 11.848-15.84 6.88 7.905 1.415 12.724-1.191 15.84-6.88ZM120.483 551.846l2.14-1.781 11.519-2.343c.697 1.734 1.434 3.524 2.459 6.064l-16.118-1.94Zm497.658 109.727c-22.57-7.499-46.185-6.487-70.158-7.171 9.318-5.38 56.548-.825 70.158 7.199v-.028Zm-32.207 6.158 18.398-1.696 7.726 6.852c-6.88-5.221-14.506 1.8-22.052-.609.488-.61.577-.835.746-.938.478-.215.996-.365 2.3-.825l-7.118-2.784Zm-53.433-15.485c-4.589 1.594-17.512-1.078-25.665-5.427l25.665 5.427Zm-32.206-7.855-21.336-3.871c7.517-3.178 14.466 1.518 21.336 3.899v-.028Zm58.858-96.041c6.272-1.285 11.758-5.512 13.152-10.611 8.79 4.686 16.257.468 23.634-4.171l.777 1.874-128.688 72.636c-3.644-5.043 6.531-5.09 3.146-9.514l12.654-5.099h-8.96c4.848-6.009 5.316-6.14 14.933-5.878a4.605 4.605 0 0 0 2.738-1.349c7.805-7.068 7.785-7.077 18.378-8.68l-10.782-.441c3.445-1.406 7.497-3.749 11.868-4.64 4.37-.89 9.159-.047 9.686-3.487l19.215-6.702-3.086-1.003c3.863-.084 3.584-6.477 9.318-4.78 4.261 1.256 11.529-4.565 12.017-8.127v-.028Zm-76.52-58.332c-2.778 8.22-4.978 14.801-7.228 21.381l-2.18-.656c-3.096-8.371 1.722-14.079 9.408-20.697v-.028Zm47.29-72.898c2.947-6.474 5.9-12.942 8.861-19.404 1.563 8.024-3.286 13.901-6.711 20.266l-2.15-.862Zm14.456-39.079-2.191-.881c3.863-8.08 7.723-16.166 11.579-24.259l1.583.61-10.971 24.53Zm9.786-70.02c-3.693 6.833-6.421 14.144-9.318 21.334-1.185 2.943-2.888 3.899-6.173 3.459a140.841 140.841 0 0 0-15.64-1.331c-4.56-.103-7.328-2.222-8.184-5.981-1.464-6.468-2.24-13.066-3.425-19.6-.866-4.743-2.18-9.43-2.837-14.191-.169-1.537.012-3.09.53-4.556a10.783 10.783 0 0 1 2.471-3.948 11.591 11.591 0 0 1 3.977-2.643 12.204 12.204 0 0 1 4.779-.87c11.091.468 22.172 1.246 33.8 1.874 3.594 8.99 4.849 17.538.02 26.481v-.028Zm2.738-43.053c.139.759.279 1.509.428 2.268a56.926 56.926 0 0 1-6.969 1.022c-5.495.15-10.603.544-16.118 2.418-4.67 1.594-11.111-.937-16.616-2.212-2.987-.684-5.586-2.559-10.016-4.687 17.453-2.043 33.352.76 49.291 1.219v-.028Zm-40.888-5.662c-7.427 1.875-14.147 4.987-15.85 14.67-3.982-8.643-1.374-15.935 5.307-19.094 5.047-2.353 8.661-1.622 10.543 4.424Zm-72.767 151.046 1.563-.281c1.942 4.377 3.893 8.755 5.974 13.507l-7.557 1.687.02-14.913Zm-2.987-5.465-.995-1.284 9.836-6.562c.09-.824.299-2.662.508-4.499l2.081.506c-.309 8.858-1.384 9.964-11.43 11.839Zm11.141 97.279c4.201 2.812 4.201 2.812 2.987 11.679l5.585-8.895c.239 10.733-5.794 17.116-13.938 23.19a6612.905 6612.905 0 0 1 5.346-25.974h.02Zm4.082-74.614c-6.053-3.749-.09-7.864-.438-11.623.169.938.338 1.875.497 2.812h.877c.537-2.015 1.065-4.021 1.463-5.502l4.898-.844-7.297 15.157Zm-11.141-44.449c-6.272-2.55-12.255 4.612-20.379 4.424l7.964-5.155-5.973 1.106a115.1 115.1 0 0 0-.557-1.725c6.391-2.137 12.842-6.205 19.154-6.018 15.651.469 27.239-8.492 40.67-13.057 5.794-1.969 11.479-4.246 17.213-6.393.259.619.528 1.228.787 1.875l-58.879 24.943Zm-7.855-58.641c6.422-1.05 12.584-3.459 18.856-5.278-7.546 4.509-17.84 6-19.622 17.36-.667-1.518-1.105-2.502-1.534-3.487l-1.573-.197-2.528 9.73c-.996-2.812-2.649-5.24-2.639-7.677.01-5.483 2.26-9.345 9.04-10.451Zm-7.287-1.678v-33.97l.697-.14 2.867 33.894-3.564.216Zm17.124-85.974c1.553-.666 3.175-1.997 4.649-1.875 4.669.403 9.249 1.65 13.938 1.959 2.28.141 4.659-1.087 7.397-1.79 3.365 2.409 4.072 5.952.229 8.436-4.908 3.112-2.808 7.63-3.275 11.248-1.185 9.177.149 18.635-4.331 27.436-.647 1.275.567 3.394 1.115 6.075l11.051-2.091c-.797.713-1.195 1.369-1.723 1.5-3.683.862-7.397 1.622-11.09 2.409-.876-3.843-2.439-7.696-2.479-11.548-.1-10.011.876-20.032.607-29.996-.119-4.686-3.684-7.733-10.324-8.886l7.716 11.867-3.614 2.475c-3.057-1.425-5.645-3.356-8.513-3.834-6.809-1.144-8.781 1.228-7.496 7.611.348 1.744-.329 3.675-.538 5.521a108.15 108.15 0 0 1 11.429 4.04c.727.338.578 3.187.11 4.687a4.843 4.843 0 0 1-1.067 1.818 5.203 5.203 0 0 1-1.77 1.238c-1.932.506-4.122.197-6.193.131-9.567-.337-10.145-1.087-7.457-9.495-4.749-11.905 1.195-25.178 12.246-27.343l-.617-1.593Zm34.964 74.294c-.597 2.681-.995 4.331-1.424 6.403l-1.364-2.194c-2.488 1.603-5.286 2.925-7.397 4.884-2.309 2.156-3.982 2.878-6.809.675-1.374-1.059-3.923-.769-6.631-2.072l23.625-7.696Zm-49.211 34.167c14.744-5.38 29.758-10.114 44.95-14.473-3.779 4.37-9.218 7.181-15.163 7.837-6.57.759-11.598 4.377-16.775 8.192-4.47 3.3-10.314 4.968-15.551 7.349l-2.15-1.875c1.533-2.465 2.489-6.28 4.689-7.077v.047Zm76.141-94.232c-3.484 1.64-6.202 2.662-8.621 4.124-2.678 1.612-6.541 2.4-5.775 6.927.18 1.04-1.573 2.915-2.907 3.553-5.187 2.493-7.228 6.149-4.649 12.588-2.584-2.552-4.199-5.836-4.595-9.341-.396-3.506.449-7.037 2.405-10.043 4.221-6.637 11.807-11.286 24.142-7.855v.047Zm-3.245-26.115c.547 0 1.862 1.978 1.633 2.737-.578 1.968-1.295 4.499-2.888 5.502-4.778 3.018-6.58 6.946-6.053 12.186-1.244-6.562-2.489-13.048-3.693-19.385 2.897-.309 6.939-.853 11.001-1.04Zm-28.523 2.943c2.887 2.25 8.96.891 13.559 1.256.896.066 1.743.6 3.345 1.181-1.453 1.134-2.23 2.072-3.245 2.494-7.686 3.243-8.453 9.608-8.96 16.403a94.085 94.085 0 0 1-2.649 15.42c-2.439-12.683 6.79-28.852-15.112-35.929 5.794-1.481 8.253-4.584 13.062-.825Zm-6.392-14.379c-14.237 6.562-26.074 13.611-33.85 26.612 2.539-12.758 17.224-24.353 33.85-26.612Zm-17.851-17.125c.16.599.309 1.199.468 1.799-9.348 1.875-18.647 4.012-28.045 5.624-6.969 1.182-14.157 1.585-21.206 2.531-1.075.15-2.091 1.275-2.987 2.128-1.513 1.49-2.887 3.112-4.47 4.856.478 1.312 1.175 3.187 2.43 6.561l-6.432-4.031-2.817 8.109-.996.056c-.189-2.287-.378-4.574-.677-8.268l-2.499 12.964c-2.917-3.253-5.067-5.624-7.964-8.914l-4.152 1.528-3.285-10.077 4.559 4.499c-2.419-10.789-10.533-15.213-18.497-21.278-.319 5.446-.558 9.721-.886 15.326-4.919-5.98-2.937-17.528.806-19.994 3.484 2.541 6.202 5.493 9.627 6.834 20.957 8.145 42.74 7.114 64.533 4.133 7.557-1.031 14.994-2.896 22.49-4.386ZM217.342 251.92c1.324 1.275 3.694 1.612 4.978 2.128-1.045 2.099-1.732 4.405-3.196 6.13a5.67 5.67 0 0 1-2.047 1.364 5.978 5.978 0 0 1-2.473.398c-1.662-.272-4.42-1.828-4.43-2.812-.07-7.677-.518-15.541 1.175-22.937.747-3.29 5.774-6.477 9.627-8.071 2.141-.881 5.864 1.612 8.871 2.587-.11.488-.209.938-.309 1.444l-5.914.684v.938h8.562l-2.459 5.53c-2.538.234-6.59.094-10.254 1.134-2.579.731-6.173 2.812-6.481 4.771-.309 1.959 2.369 4.8 4.35 6.712Zm-20.319-2.812-1.673-.207-2.349-7.592-2.34 1.631c-6.511-4.968 5.436-27.474 17.791-32.498-12.176 10.564-12.973 24.268-11.429 38.628v.038Zm-30.734-37.204h22.739c-3.803 2.765-12.883 3.262-22.739-.038v.038Zm43.666 8.033-2.877 5.915 4.978-2.653-8.741 18.588c-2.818-5.352.936-18.269 6.64-21.85Zm14.376-75.645c11.3-23.059 28.046-40.868 53.343-50.617-6.8 4.48-13.938 8.53-20.28 13.554a146.352 146.352 0 0 0-18.189 17.238c-5.486 6.187-9.956 13.179-14.874 19.807v.018Zm14.466-13.769-10.673 15.25-1.174-1.003 10.214-15.269 1.633 1.022Zm-14.028 94.298 20.907-8.952-8.781 14.998-12.126-6.046Zm103.809-10.583.537.769-4.34 4.93 8.343.722-7.348 4.78 14.934 3.844-6.72 5.774 8.452 1.874-12.355 3.628 17.134 1.875c-.08.646-.159 1.293-.249 1.949h-18.627l3.982 1.631c-4.241 1.181-8.313 3.272-12.365 3.244-8.791-.075-17.572-1.191-26.353-1.969-2.986-.262-5.893-.853-8.85-1.19-1.165-.132-3.077-.441-3.425.065-4.868 7.124-11.758.394-17.403 2.259-.906.3-2.598-1.518-3.982-2.362-.587 1.659-1.314 3.75-2.589 7.405-.567-2.934-.826-4.255-1.115-5.774h-6.202c-.697 1.875-1.344 3.628-1.991 5.362l-1.215-.084-.627-4.584-6.053-5.427c.328-.525.657-1.05.995-1.575l12.326 1.05.079-.628-13.091-1.613 5.127-2.493-4.978-1.584 9.05-4.687-4.65-.937c5.088-9.889 11.26-18.157 22.182-23.022 8.422-3.749 15.013 0 22.42 2.362 6.631 2.109 13.61 5.512 20.827.535.787-.535 3.604 1.696 5.556 2.484 1.951.787 4.092 1.396 6.491 2.202-.11.207-.558 1.116-1.274 2.569l7.367-3.384Zm32.854 22.712c-5.814 3.937-14.934 3.225-18.448 0h18.448Zm-14.038-44.29c1.115-7.893 2.234-15.791 3.355-23.696l2.151.29-3.823 23.631-1.683-.225Zm-109.961 74.145 5.635-.6-5.247-.647c.226-1.187.313-2.394.259-3.599-.717-4.293.996-5.428 5.565-5.071 30.584 2.39 61.188 4.546 91.782 6.758 9.827.712 19.683 1.247 29.499 2.147 2.629.234 5.157 1.453 7.726 2.249-1.253.44-2.562.723-3.893.844-4.709 0-7.188 2.981-9.746 6.018-1.384 1.64-2.987 3.159-4.69 4.986l2.778.488c0 .309 0 .609-.07.937l-120.195-9.167c.229-2.034.328-3.14.597-5.343Zm10.523 35.282h6.471l1.902-4.752 1.274.122-.736 14.632-1.404.056c-.289-2.465-.568-4.931-.856-7.396h-1.295l-.995 7.293c-3.644-2.587 2.847-8.764-4.361-9.936v-.019Zm-3.823 10.733c16.925 1.49 33.85 3.187 50.775 4.621 26.681 2.25 53.372 4.331 80.064 6.562 2.877.243 5.704.937 8.562 1.462l-.558 1.34h-38.23v-1.584c-.289.244-.876.553-.836.731 1.344 5.756 1.354 5.118-5.356 5.062-4.61 0-9.19 2.268-13.869 2.953a16.633 16.633 0 0 1-7.387-1.05c-3.494-1.2-6.601-3.834-10.483-.61-.857.704-2.888.544-4.232.244-4.141-.937-8.173-2.39-12.355-3.112-1.483-.253-3.275 1.031-4.978 1.622.737.543 1.942 1.453 3.146 2.362l-.268.806-14.347-3.271 1.653 2.146c-3.982-.59-7.666-1.481-11.32-1.575-3.833-.103-7.695.61-11.548.835a68.238 68.238 0 0 1-6.919 0c-11.45-.488-11.45-.497-11.38-11.014.11-7.33 2.151-9.205 9.866-8.53Zm133.049-41.713 11.827 6.206c-3.663-1.134-11.947 5.427-11.857-6.206h.03Zm21.902 74.417-.059.938-26.672 3.824c0-.937-.119-2.128-.139-2.475-4.49 0-8.462.15-12.415-.046-4.699-.225-10.075.468-13.938-1.453-5.117-2.559-9.587.253-14.366-.61-5.555-.984-11.409-.384-17.094-.937-2.34-.206-4.53-1.659-6.87-2.24-1.921-.478-4.768-1.406-5.814-.572-5.226 4.143-9.229-.441-13.769-1.059-9.557-1.285-19.224-3.347-28.752-2.953-8.711.356-17.283 3.524-27.189 5.737.767-4.237 1.274-7.021 1.991-11.033l165.086 12.879Zm-19.811-76.179a27.136 27.136 0 0 1-5.805-1.228h26.881v1.294c-7.019 0-14.038.112-21.057-.066h-.019Zm21.016 56.992L418 328.352c-.099.703-.209 1.406-.308 2.109l-17.801-2.109c.149-.675.289-1.341.418-2.015h-.02Zm-38.678-140.145c1.722-5.624 3.982-11.117 6.173-17.219 5.585 1.734-.867 10.386 7.247 10.667a750.452 750.452 0 0 0 1.932-4.612c6.79.207 9.786 9.43 5.406 18.747-.12-1.462-.239-2.924-.279-3.44-1.991.731-3.843 1.35-5.625 2.091-1.782.74-3.494 1.612-5.794 2.671-.289-1.875-.538-3.487-.876-5.624-.548 1.575-.916 2.625-1.583 4.574a888.62 888.62 0 0 1-1.056-4.143l-2.2 4.303c-5.426-1.275-4.241-4.987-3.345-8.015Zm49.779-2.812 8.064-4.237 4.201 5.943-10.533 7.799a334.726 334.726 0 0 1-1.732-9.505ZM317.935 56.753c.289 3.13 2.877 6.045 4.241 9.139.787 1.79 1.215 3.75 2.041 6.355h5.755a5421.081 5421.081 0 0 1-8.025-13.78l11.639.591.388-1.237-9.956-2.812-.269-1.247h31.56l-5.167 3.647 15.929-2.887c7.965 1.668 14.098 3.337 20.33 4.152 6.879.881 13.868.984 21.464 1.462 0 .207.16 1.81.219 2.381l14.237-3.684-4.729 5.343 10.952-4.133.686 1.518-4.579 2.025 5.824 1.097-1.493 2.54a61.53 61.53 0 0 0 5.883 0c2.898-.272 5.775-1.134 8.662-1.097 3.265 0 6.073 5.193 5.973 10.002l12.007-6.562 1.304.731-3.982 8.09 3.873-1.725c.109 1.781.199 3.271.358 6.112l4.51-9.74.996.113c.288 3.412.577 6.814.995 11.923l2.708-6.87 4.042 6.823 1.782-.225c-2.071 6.393-3.673 12.964-6.351 19.122-2.39 5.493-4.69 10.358-1.185 16.367.647 1.096-3.435 4.686-5.386 7.067-.996 1.21-2.051 2.334-3.087 3.497l2.748 1.499c-.269 2.906-.846 5.456-.637 7.949.339 3.909-.866 4.893-5.725 4.687-.886-.047-1.742 1.875-2.837 2.625-3.076 2.052-1.374 8.248-7.845 7.564-2.27-.234-.687 5.765-5.515 4.124-1.374-.468-3.366.657-5.825 1.228l-2.389 6.777c-.279-.468-.558-.937-.846-1.406l-6.462 1.988c.12.609.23 1.218.349 1.828l17.413-2.672.268 1.509c-8.711 1.378-17.382 3.572-26.143 3.946-10.454.441-21.007-.44-31.481-1.181-17.064-1.218-29.23-11.164-41.306-21.175-1.702-1.406-3.624-2.587-5.436-3.88 8.96 11.867 6.78 25.168 4.152 37.869-5.486 26.574-2.569 20.856-27.498 20.153-11.688-.328-23.376-1.406-35.044-1.162-5.904.122-11.947 1.978-17.582 3.815-8.433 2.737-16.606 6.149-25.298 9.374-6.421-10.377-9.368-20.969-5.893-32.489 7.088-23.537 19.712-44.272 38.469-61.097 10.951-9.852 24.063-17.219 39.673-19.563 4.56-.684 6.7-.103 8.144 4.528a151.874 151.874 0 0 0 9.518 23.799c2.688 5.231 7.168 9.655 10.842 14.435-1.623-2.755-3.107-5.624-4.909-8.239-11.688-17.154-15.043-36.735-18.916-56.242-2.2-11.032-4.977-21.952-7.526-32.863 5.336-.178 8.801 1.79 9.388 8.174ZM269.739 7.157c-27.408-2.915-54.816-3.356-82.234 0 27.428-7.611 54.836-6.927 82.234 0ZM99.775 97.424c3.614-11.248 12.116-18.156 21.275-24.924 22.799-16.807 47.629-29.855 76.202-35.507 10.443-2.062 21.195-2.765 26.581-3.44 28.992.262 51.452 4.837 72.946 14.642 12.057 5.492 14.436 15.063 15.8 25.608.129 1.069-2.987 3.356-4.819 3.665-25.692 4.055-49.55 15.135-68.605 31.861-12.215 10.601-19.503 24.221-26.293 38.085-7.915 16.15-15.371 32.507-23.157 48.742a28.425 28.425 0 0 1-4.46 6.449c-4.898 5.456-10.324 7.977-18.717 6.299-34.845-6.964-61.377-33.154-67.808-67.949-2.728-14.604-3.674-28.992 1.055-43.53Zm66.375 135.542c-.05.432-.09.853-.14 1.285l-21.683-1.613.149-1.499 21.674 1.827Zm-74.38-48.461c1.185 5.043 3.983 9.758 6.233 14.548.886 1.874 2.22 3.534 2.827 5.577-6.969-8.071-12.942-16.685-15.929-26.902 5.157-.384 5.854 2.662 6.82 6.777h.05Zm-4.26-84.55-11.828 17.988-1.643-.937 11.678-18.054 1.792 1.003Zm-3.286 76.329-11.797-26.433 2.688-.937 9.109 27.37ZM35.72 130.195c7.098-13.892 12.335-28.759 23.565-40.541 2.698-2.812 3.066-7.668 7.965-8.54 5.923-1.059 9.438-5.174 13.43-8.783.766-.684 2.28-.628 4.66-1.218-1.365 5.155-2.828 8.773-7.338 11.614-2.46 1.546-3.375 5.268-4.978 8.014l-1.902-.562 2.26 5.277c-7.566 2.053-10.085 5.352-6.322 8.849-1.443.843-2.767 1.734-4.191 2.456-6.073 3.083-9.956 7.498-13.251 13.479-2.738 4.912-9.15 7.995-13.938 11.914a4.102 4.102 0 0 1 .04-1.931v-.028ZM19.133 344.053c-7.466-12.27-9.458-28.937-4.709-37.982 1.434.825.319 6.711 4.53 1.612 2.051 10.817 3.982 20.903 6.133 32.33l-6.74-1.969a283.9 283.9 0 0 0 .786 6.009Zm25.358-166.934c3.265-9.843 7.646-19.376 11.887-28.908a73.667 73.667 0 0 1 10.354-17.004c-20.21 34.138-24.59 72.251-32.038 109.539.368-21.699 2.917-43.024 9.747-63.627h.05Zm17.98-27.296a43.808 43.808 0 0 1 2.27-3.956c2.379 5.418 4.649 9.571 6.053 13.985 5.973 18.935 14.037 36.782 28.025 51.958 14.994 16.245 33.939 24.878 56.34 27.184 3.982.412 5.545 1.621 6.561 5.38.856 3.178 3.086 7.058 5.923 8.502 5.287 2.681 5.745 6.243 3.724 10.245-4.421 8.727-8.483 17.81-14.446 25.59-8.363 10.864-17.482 21.475-27.807 30.67-16.297 14.529-35.84 22.769-59.047 20.032-10.663-1.266-17.413-6.299-20.618-16.92-17.91-59.147-10.096-116.373 12.972-172.67h.05Zm78.341 174.348c-2.309 5.437-11.399 11.558-15.929 10.695l15.929-10.695Zm-25.586 16.17-19.613 5.68c-.169-.516-.338-1.022-.497-1.537l19.612-5.906.498 1.763Zm-44.641 36.2-14.058-17.434 2.34-1.641c4.553 5.849 9.11 11.695 13.669 17.538l-1.951 1.537Zm173.279 199.001c.15-.806.309-1.612.468-2.409l15.372 2.569c3.236-3.3 5.675 1.312 8.671 4.012l-24.511-4.172Zm104.536 2.419c-.319-.366-.637-.722-.946-1.088l1.583-3.215 9.199-4.471c.329.581.657 1.172.996 1.762l-10.832 7.012Zm15.929-18.222-2.877 2.812 3.146 2.259c-.08.478-.169.937-.249 1.434h-16.875c-.08.553-.149 1.106-.229 1.668l3.723 1.238c-.707 1.49-1.403 2.962-2.11 4.433l-9.956 5.568-1.135-1.537 7.497-6.655-.996-.938-11.101 8.483v-4.921l-5.107 2.409-.687-.815 5.048-5.624-8.532-2.128 1.513-3.468c-5.416 1.593-8.96 8.22-15.332 2.934l3.544-4.687c-4.619 2.193-7.556 3.909-10.742 4.94-1.483.478-3.454-.375-5.197-.628.249-1.172.498-2.344.757-3.525l-1.991-1.031-8.254.562 1.404.891-5.137 6.702c-.319-3.618-.538-6.018-.747-8.436l-10.304.881c-.358-1.397-.876-3.365-1.513-5.849l-8.154 2.812 6.232-6.721-13.748 8.014-.996-.993 2.419-3.421-16.686-3.178 4.401-3.637c0-.328-.09-.656-.14-.994l-15.74 3.253c-1.682-8.221-8.273-3.075-12.723-2.812-3.325.178-6.033 1.434-8.642-1.678-.617-.731-3.345-.337-4.868.159-2.131.694-4.042 1.978-6.85 3.422.628-1.697 1.046-2.812 1.444-3.909-7.288 1.875-11.359-1.097-13.271-8.549l-4.908 3.169-2.937-3.309c-1.225 1.087-2.459 2.062-3.544 3.159-.628.628-.847 1.743-1.553 2.127-1.872 1.013-3.903 1.744-5.874 2.578 0-1.875.059-3.749-.12-5.624a36.928 36.928 0 0 0-1.463-5.006l-1.991 6.646-3.266-5.015-1.812-.121c-.212 3.899-.418 7.802-.617 11.707l-1.991.356c-1.444-4.986-4.102-9.973-4.132-14.997-.229-41.806 0-83.613.179-125.428 0-7.312.737-14.632 1.145-21.944.369-6.711 1.354-7.367 7.756-4.312 2.927 1.407 5.445 3.553 8.323 5.484.318-.881.766-2.09 1.632-4.481l3.565 7.574.896-.187v-6.768c8.412 1.509.697 8.258 5.197 11.173.348-4.077.667-7.78.995-12.063l12.524 6.261v-3.506c3.545 1.172 3.545 1.172 5.456 15.514.438-5.465.866-10.92 1.334-16.723 3.724-.262 4.142 1.378 3.226 4.687-.597 2.137-.11 4.556-.11 6.749l7.079 2.353c.318 3.149.627 6.243.936 9.326l1.871-.253c-.428-3.383-.846-6.767-1.354-10.845l4.978 1.941c.14 1.302.279 2.605.498 4.78l2.698-14.998 2.648.338v19.328h1.494c.288-5.765.567-11.52.906-18.344l11.728 9.13a305.067 305.067 0 0 0-.996-6.084l2.33-.318c.687 4.686 1.383 9.373 1.991 13.526l11.29 6.13c-.996-3.44 2.518-8.952-4.331-11.857-.448-.188.139-2.541.318-4.922l4.59 6.074.896-.534c-.368-1.078-.727-2.165-1.095-3.252l1.862-.938c.776 1.594 1.921 3.131 2.21 4.809.328 1.875-.11 3.909 1.204 5.98.863-4.949 1.723-9.895 2.579-14.838l1.991-.235c-2.33 10.208 9.1 11.174 12.684 19.179.428-4.528.717-7.63.995-10.733l1.245-.694c.926 1.603 2.708 3.244 2.628 4.8-.388 7.686-.338 7.845 7.537 5.446-.07-1.369-.14-2.728-.249-4.959l8.074 5.577c-.667-2.896-1.075-4.686-1.474-6.43l5.118 1.444-.15-.938 15.571.75c0 .366.09.731.13 1.088l-5.078.937 7.905 4.218v-7.021c1.931 2.034 3.604 3.168 3.405 3.675-2.33 6.111 2.558 7.705 6.571 10.132 1.622.938 2.27 3.703 3.912 4.294 2.131.778 4.809.243 7.258.271v3.581l1.682.347c.448-2.269.887-4.546 1.374-7.021 2.25.206 2.44 7.34 7.238 2.4l-4.37-3.319c6.361-.937 7.048-.065 6.192 4.865-.707 4.069-.538 8.277-.766 12.42l-1.832.057-.747-9.252c-3.106 8.117-9.747-.225-14.077 3.196 7.964.225 5.386 5.624 7.068 8.868 2.17 3.093 4.331 6.186 6.76 9.664-.179-2.334-.328-4.378-.528-6.937 3.206 2.634 3.774 11.914 1.494 15.504l-2.151-.206c-.079.234-.149.469-.229.712l3.823 1.875c-.468-.787-.935-1.556-1.423-2.353 6.441.253 3.315-5.136 6.043-7.752.179 1.716.358 3.431.547 5.259l5.436 2.325v4.621l-6.969 3.927c-.995-1.612-2.1-3.477-3.265-5.389l-3.893 1.687c.488 1.078.996 2.146 1.444 3.159l-10.165 4.377 8.343 2.69c-.199 1.153-.478 2.756-.827 4.8l-5.376-4.687c.329 2.278.598 4.171.906 6.346l-4.629 1.603v.881c6.78.553 2.13 8.23 6.969 9.954a33.817 33.817 0 0 1-.717-6.186c.12-1.809.996-3.571 1.683-5.755l2.986.656 4.212-4.322-2.987 1.481-.916-1.199 3.843-1.528 1.354-.572 2.588 4.059 1.753-3.187 8.303 2.409-5.775 2.812 2.987 4.912a18.222 18.222 0 0 0-4.371.571c-1.722.638-4.758 2.241-4.619 2.644 2.718 7.939-3.196 4.443-6.402 4.396a6.453 6.453 0 0 1-1.772-.591l10.454 5.221-7.965 1.369 7.039 2.934-6.551 4.181 7.218 2.634-7.208 2.53 3.654 2.475-2.529 3.225 4.381 2.943-7.905 1.621 9.209 1.96-7.517 3.44 4.809 1.34v1.434l-6.193.488v7.077l16.168 4.686-10.184 3.328 5.207 2.147 5.585 8.97c.896-4.031 1.682-7.499 2.459-11.023l1.712.506c-1.324 4.687 1.075 10.433-6.431 13.442l5.814.497Zm-43.407-168.8c7.855-5.287 16.387-1.415 24.601-1.631a31.659 31.659 0 0 1 8.502.591c2.874.834 5.383 2.525 7.148 4.818-59.934-1.519-118.961-8.615-178.138-14.257.06-.76.129-1.519.189-2.269l138.046 7.743.628 1.959-2.43 2.156c.409.337 1.205 1.05 1.384.928l.07-.038Zm16.258 32.564c-2.31-1.931-4.66-3.824-6.91-5.812a34.72 34.72 0 0 1-2.648-2.943c1.045-.6 2.25-1.875 3.116-1.659 1.991.412 4.749 1.115 5.366 2.456 1.016 2.39.717 5.315 1.006 7.995l.07-.037Zm-96.541-25.468 8.9 8.783-.995 1.172-8.373-2.812c.139-1.894.259-3.909.468-7.143Zm-24.521.553c-6.023-6.29-6.023-6.308-.398-11.454.132 3.843.265 7.673.398 11.492v-.038Zm114.262-22.103c-11.947-.937-23.894-1.078-35.761-1.978-2.897-.215-5.605-2.709-8.512-2.924-4.092-.319-8.323 1.022-12.425.759-9.856-.609-19.832-3.168-29.439-2.175-6.969.713-12.067-2.68-18.14-2.812-2.2-.056-4.46 1.556-7.038 2.531-.18-1.078-.199-2.878-.538-2.934-3.674-.59-8.851-2.549-10.822-.993-5.973 4.686-12.395-.441-18.737 2.306-4.977 2.165-12.156-.366-18.318-.113-4.082.169-8.104 1.565-12.076 2.4-4.082-8.737-2.489-11.624 10.115-18.907-11.45 1.444-13.829 4.621-13.66 16.873 0 2.634-1.603 5.286-2.499 7.92-1.115 3.281-3.096 6.562-3.215 9.833-.389 11.811-.15 23.64-.15 36.557-31.629-7.058-53.114-24.596-71.83-46.483 4.53-6.674 11.03-10.311 18.856-11.952 14.545-3.112 29.26-5.624 42.133-13.451 12.872-7.827 24.889-16.872 33.61-29.17 8.044-11.361 16.069-22.741 24.203-34.055a57.954 57.954 0 0 1 6.242-7.452c4.261-4.218 8.343-7.592 15.71-4.34 4.868 2.147 11.041 1.678 17.92 2.541-.995 10.948 3.435 22.496-2.688 33.894-1.394 2.578-.995 6.225-.687 9.374.428 5.034-.995 8.605-6.62 10.311l4.46-.319.896 1.416c-1.812.768-3.843 1.275-5.396 2.371-2.499 1.772-5.157 3.637-6.889 6.018-1.733 2.381-1.504 6.562-3.594 7.799-2.858 1.753-7.059 1.603-10.723 2.109-2.1.281-4.261.253-6.292 1.49l10.274 2.063-.209 1.949h-30.912l-.15 1.941c4.63.59 9.249 1.321 13.939 1.752 30.753 2.869 61.516 5.625 92.269 8.54 6.352.59 13.879-.225 18.667 2.756 4.978 3.084 8.134-1.125 12.356.393 4.738 1.697 10.304 1.406 15.511 1.875 5.386.497 10.792.815 16.188 1.322 14.017 1.293 28.035 2.643 42.053 3.974 0 .45.089.937.129 1.35-2.638.159-5.306.665-7.905.431-16.795-1.575-33.531-3.421-50.306-4.752v-.038Zm54.956 196.611v-22.047c3.494 1.903 3.385 15.092 0 22.084v-.037Zm7.745-95.957c-.508 5.624-.995 11.248-1.752 16.872-.518 4.115-1.304 8.192-2.041 12.739l2.658-2.212c-1.573 3.524 2.987 9.561-5.525 10.854l4.171-36.922c-.557-.197-1.623-.45-1.603-.572.618-4.509 1.514-8.989 1.991-13.517.498-4.799.668-9.636.817-14.463.08-2.334-.388-4.687-.309-7.021.408-12.767.996-25.524 1.275-38.291 0-1.641-1.175-3.309-1.992-5.371l2.758-1.237c1.434 14.519 2.857 28.898 4.401 44.571l-1.713-2.925c-.647 1.191-2.081 2.859-1.722 3.328 2.738 3.627 1.991 7.827 2.558 11.773.16 1.05.09 2.625-.587 3.206-6.083 5.174-.995 12.851-4.799 18.466.498.253 1.434.543 1.414.759v-.037Zm3.425 7.817-2.24-.487c1.613-4.65 3.222-9.302 4.828-13.958l-1.493-.487a611.873 611.873 0 0 1-1.692 4.827l-.926-.178c.212-4.374.424-8.78.637-13.216l1.175-.057c.169 1.434.348 2.869.527 4.378l2.539-2.259 1.663.59-5.018 20.847Zm-16.288-122.541c-5.545-.45-11.27 1.031-16.815.563a5945.467 5945.467 0 0 1-88.785-8.277c-4.59-.45-8.96-2.306-13.59-3.103-1.055-.187-2.499 1.969-3.654 1.875-10.135-.881-20.24-2.015-30.803-3.131.837-5.549 3.415-6.768 7.328-6.468 8.791.666 17.582 1.257 26.562 2.606l-7.965 1.875 85.619 3.45v1.49l-7.496.45-.06.937c4.371.46 8.731 1.134 13.112 1.35 24.962 1.206 49.925 2.325 74.887 3.356 1.802.065 3.713-1.209 5.505-1.987 1.792-.778 3.465-2.55 4.879-2.297 9.458 1.744 16.925-3.478 25.148-5.943 4.639-1.387 9.209-2.962 13.938-3.749-10.951 6.177-22.132 11.97-32.685 18.653-8.313 5.277-16.745 2.981-25.247 2.072-10.046-1.172-19.912-2.934-29.878-3.722Zm38.29 74.389c5.326 10.958.996 22.553 2.399 33.745.16 1.312-2.349 2.915-3.623 4.387-1.245-2.269-3.127-4.434-3.584-6.834-.618-3.28-.15-6.749-.15-11.613 4.44-2.25 2.479-8.437 2.838-13.451.756-10.63.537-21.325.677-31.992.069-5.109 0-10.227.119-15.345 0-.853.836-1.678 1.284-2.522-.916-3.412-1.828-6.827-2.738-10.245l1.444-1.059c1.583.834 4.301 1.462 4.51 2.531.408 2.043-.498 4.359-1.095 6.505a12.534 12.534 0 0 1-1.673 2.812c.996.694 2.897 1.397 2.897 2.1 0 9.317-.229 18.644-.318 27.971 0 2.296.717 4.63.418 6.87-.179 1.322-1.752 2.447-2.569 3.75-.448.712-1.105 1.79-.836 2.353v.037Zm-2.359 128.737-.916 1.724c-.289-1.659-.588-3.44-1.185-6.936a3590.93 3590.93 0 0 0-1.543 6.027h-.428l.478-7.096 1.274.572c1.702-2.952 3.405-5.905 5.157-8.961v28.233h-1.583v-13.348l-1.254-.215Zm14.933 41.375-4.062-1.481c-6.282-.328-12.464-.863-16.546-6.918h6.68l-2.688-2.062c3.524-5.531 8.881-4.031 12.246-1.734 3.594 2.427 7.755 6.261 4.41 12.195h-.04Zm4.192-161.226c1.831-2.737 3.703-5.521 5.565-8.314l-4.132-1.509 9.657-3.403c-.378 4.049-.697 7.499-1.145 12.401l-4.539-5.624c2.15 5.662.318 7.152-5.396 6.421l-.01.028Zm19.055 209.293v.553l-4.321.3-5.316 7.499c-2.629-8.923 3.205-18.747 12.534-20.425-2.21 4.012-4.251 7.715-6.411 11.652l3.514.421Zm-7.805-41.693-1.643-.347c.448-6.965.378-13.995 1.434-20.875 2.678-17.426 6.102-34.748 8.761-52.173 6.093-39.885 29.06-71.868 53.761-103.11a115.913 115.913 0 0 1 5.097-6.027c.498-.553 1.384-.787 2.987-.797-47.191 53.008-67.152 115.295-70.358 183.301l-.039.028Zm19.194 68.296c-12.514-9.468-8.592-31.074 5.695-38.638 2.469 3.868 4.928 7.73 7.377 11.585l-8.452-1.087 2.986 5.062-10.871.872c-2.858 7.124-1.195 14.36 3.305 22.177l-.04.029Zm153.319 18.072h6.401v1.547l-18.746-1.472v1.059l17.582 3.749c-.06.469-.11.938-.16 1.388l-17.691-2.194 6.103 5.203c-.608.093-2.081-.066-2.36.412-2.15 3.628-4.271 1.322-6.72.403-1.284-.478-3.096.281-4.669.516-.388.056-.787.393-1.145.337-5.605-.881-11.21-1.753-16.795-2.727-2.698-.479-5.327-1.266-7.965-1.763-9.458-1.734-18.916-3.412-28.394-5.108 0-.61.07-1.228.11-1.875l3.196-1.181c-12.495-4.275-18.478-18.307-35.124-17.81l4.898 3.271c-.1.188-.189.385-.289.582-2.549-.76-5.097-1.519-7.188-2.128l4.281-6.027-6.969-2.588-.378.685 3.982 2.812-.856 1.275c-5.834-2.812-13.689-2.288-16.377-10.536-5.406 2.512-10.544 3.815-14.247-2.634l6.71-.938c-2.678-2.502-5.077-4.602-7.238-6.908-.408-.431.09-1.622.219-2.493 3.764-1.556 6.86 0 10.125 1.649 1.085.535 2.788 0 4.202-.112.179-.75.368-1.49.557-2.24 5.585 3.337 11.081 6.833 16.865 9.833.827.421 3.057-1.547 4.978-2.588.996 4.237 3.982 4.49 8.771 4.265 5.585-.262 11.429 3.094 16.925 2.597 9.488-.834 16.925 5.277 26.203 5.015 8.891-.253 17.831 1.171 26.761 1.631 2.858.15 5.755-.422 8.443-.647.508.862.995 2.681 1.722 2.756 6.969.703 13.938 1.115 20.599 1.593-.399.788-1.195 2.325-2.091 4.078l-9.777-1.509c-.199.496-.408 1.003-.607 1.509l9.677 4.743-8.96 1.003-.717 1.378c1.752.759 3.495 1.556 5.277 2.249 2.1.825 4.231 1.556 7.078 2.597l-4.709 1.181c0 .187 0 .384.07.581l5.286.244.12.665-7.079 1.978.11.694Z"/>
</svg>
